<svg xmlns="http://www.w3.org/2000/svg" width="122" height="24" viewBox="0 0 122 24">
    <g opacity="0.4">
        <path d="M78.775 3v8.516a4.258 4.258 0 1 1-8.516 0V3H66v8.516a8.516 8.516 0 0 0 8.516 8.516 8.516 8.516 0 0 0 8.516-8.516V3z" transform="translate(.006 -.606) translate(14.294 .65)"/>
        <path d="M99.425 6.65a2.093 2.093 0 0 0 .608-1.5A2.129 2.129 0 0 0 97.9 3H83v4.258h9.764l-9.155 9.125a2.093 2.093 0 0 0-.608 1.5 2.123 2.123 0 0 0 1.977 2.147h15.056v-4.255H90.3z" transform="translate(.006 -.606) translate(17.977 .65)"/>
        <path d="M62.858 3.511a6.825 6.825 0 0 0-7.3 1.381A6.838 6.838 0 0 0 44 9.843v10.19h4.258V9.843a2.585 2.585 0 1 1 5.165 0V20.033h4.258V9.843a2.585 2.585 0 1 1 5.165 0V20.033H67.1V9.843a6.838 6.838 0 0 0-4.246-6.333z" transform="translate(.006 -.606) translate(9.528 .65)"/>
        <g>
            <path d="M43.75 5.129A2.129 2.129 0 0 0 41.62 3H25.5v4.258h16.12a2.129 2.129 0 0 0 2.13-2.129z" transform="translate(.006 -.606) translate(31.02 3.65) translate(-25.5 -3)"/>
            <path d="M41.62 13.5H25.5v4.258h16.12a2.129 2.129 0 0 0 0-4.258z" transform="translate(.006 -.606) translate(31.02 3.65) translate(-25.5 -.725)"/>
            <path d="M41.62 8.5H25.5v4.258h16.12a2.129 2.129 0 1 0 0-4.258z" transform="translate(.006 -.606) translate(31.02 3.65) translate(-25.5 -1.808)"/>
        </g>
        <path d="M7.258 19.522a6.825 6.825 0 0 0 7.3-1.381 6.838 6.838 0 0 0 11.558-4.952V3h-4.258v10.189a2.585 2.585 0 1 1-5.165 0V3h-4.258v10.189a2.585 2.585 0 1 1-5.165 0V3H3v10.189a6.838 6.838 0 0 0 4.258 6.333z" transform="translate(.006 -.606) translate(.646 .65)"/>
    </g>
</svg>
